# 3ds Max Wavefront OBJ Exporter v0.99 - (c)2007 guruware
# File Created: 13.02.2023 09:23:20

mtllib Anvil.mtl

#
# object Anvil
#

v  0.1565 0.0000 -0.1169
v  0.1565 0.0201 -0.1169
v  0.1565 0.0201 0.1169
v  0.1565 0.0000 0.1169
v  -0.1565 0.0000 0.1169
v  -0.1565 0.0201 0.1169
v  -0.1565 0.0201 -0.1169
v  -0.1565 0.0000 -0.1169
v  -0.0471 0.1527 0.0547
v  -0.0285 0.0528 0.0547
v  0.0285 0.0528 0.0547
v  0.0471 0.1527 0.0547
v  0.0943 0.1527 -0.0547
v  0.0943 0.1527 0.0547
v  0.0943 0.0528 0.0547
v  0.0943 0.0528 -0.0547
v  0.0471 0.1527 -0.0547
v  0.0285 0.0528 -0.0547
v  -0.0285 0.0528 -0.0547
v  -0.0471 0.1527 -0.0547
v  -0.0943 0.1527 0.0547
v  -0.0943 0.1527 -0.0547
v  -0.0943 0.0528 -0.0547
v  -0.0943 0.0528 0.0547
v  0.0729 0.1614 0.0806
v  -0.0593 0.1614 0.0806
v  0.1389 0.1614 -0.0806
v  0.1389 0.1614 0.0806
v  -0.0593 0.1614 -0.0806
v  0.0729 0.1614 -0.0806
v  -0.1254 0.1614 0.0806
v  -0.1254 0.1614 -0.0806
v  -0.1288 0.2862 0.0806
v  -0.2169 0.2410 0.0806
v  -0.0029 0.2862 0.0806
v  0.2624 0.2446 0.0282
v  0.2624 0.2446 -0.0282
v  0.2859 0.2728 -0.0282
v  0.2859 0.2728 0.0282
v  -0.2169 0.2410 -0.0806
v  -0.1288 0.2862 -0.0806
v  -0.0029 0.2862 -0.0806
v  -0.2863 0.2862 0.0806
v  -0.2881 0.2773 0.0806
v  0.0917 0.2862 0.0806
v  -0.2881 0.2773 -0.0806
v  -0.2863 0.2862 -0.0806
v  0.0917 0.2862 -0.0806
v  0.1389 0.1739 -0.0680
v  0.1389 0.1739 0.0680
v  0.1389 0.2862 -0.0806
v  0.1389 0.2737 -0.0680
v  0.1389 0.2862 0.0806
v  0.1389 0.2737 0.0680
v  0.2007 0.2028 -0.0481
v  0.2007 0.2028 0.0481
v  0.2124 0.2732 -0.0481
v  0.2124 0.2732 0.0481
v  0.0783 0.0201 0.1099
v  0.0783 0.0000 0.1169
v  -0.0783 0.0000 0.1169
v  -0.0783 0.0201 0.1099
v  -0.0783 0.0201 -0.1099
v  -0.0783 0.0000 -0.1169
v  0.0783 0.0000 -0.1169
v  0.0783 0.0201 -0.1099
v  0.0471 0.0000 -0.0547
v  0.0471 0.0000 0.0547
v  -0.0471 0.0000 0.0547
v  -0.0471 0.0000 -0.0547
# 70 vertices

vn 1.0000 0.0000 -0.0000
vn -1.0000 0.0000 -0.0000
vn 0.0000 0.0000 1.0000
vn 0.0000 0.0000 -1.0000
vn -0.2348 0.9341 0.2690
vn -0.2348 0.9341 -0.2690
vn -0.2475 0.9345 -0.2558
vn -0.2475 0.9345 0.2558
vn 0.2348 0.9341 -0.2690
vn 0.2348 0.9341 0.2690
vn 0.2475 0.9345 0.2558
vn 0.2475 0.9345 -0.2558
vn 0.0000 -0.9482 0.3176
vn 0.0866 -0.9800 0.1790
vn 0.0866 -0.9800 -0.1790
vn 0.1274 -0.9857 -0.1105
vn 0.1274 -0.9857 0.1105
vn 0.0000 -0.9482 -0.3176
vn -0.1321 -0.9768 -0.1685
vn -0.1321 -0.9768 0.1685
vn -0.1520 -0.9777 0.1447
vn -0.1520 -0.9777 -0.1447
vn 0.7667 -0.6420 -0.0000
vn -0.5462 -0.8377 -0.0000
vn -0.7229 -0.6910 -0.0000
vn 0.0000 1.0000 -0.0000
vn -0.3740 -0.9274 -0.0000
vn -0.4956 -0.8686 -0.0000
vn -0.9817 0.1905 -0.0000
vn 0.5117 -0.8591 -0.0000
vn 0.3333 -0.9428 -0.0000
vn 0.2961 -0.0545 -0.9536
vn 0.2934 -0.0438 -0.9550
vn 0.2842 -0.0089 -0.9587
vn 0.0062 1.0000 -0.0000
vn 0.2934 -0.0438 0.9550
vn 0.2961 -0.0545 0.9536
vn 0.2842 -0.0089 0.9587
vn 0.5957 -0.8032 -0.0000
vn 0.3313 -0.1721 -0.9277
vn 0.3313 -0.1721 0.9277
vn -0.0445 0.1727 0.9840
vn 0.0445 0.1727 0.9840
vn 0.0445 0.1727 -0.9840
vn -0.0445 0.1727 -0.9840
vn 0.0000 -1.0000 -0.0000
vn 0.0247 0.8635 0.5037
vn -0.0247 0.8635 0.5037
vn -0.0247 0.8635 -0.5037
vn 0.0247 0.8635 -0.5037
vn -0.8333 -0.1611 0.5288
vn -0.8333 -0.1611 -0.5288
vn 0.8333 -0.1611 0.5288
vn 0.8333 -0.1611 -0.5288
vn 0.9432 -0.3321 -0.0000
vn -0.9432 -0.3321 -0.0000
# 56 vertex normals

vt 0.9397 0.8978 0.0000
vt 0.9473 0.8978 0.0000
vt 0.9473 0.9860 0.0000
vt 0.9397 0.9860 0.0000
vt 0.7958 0.9862 0.0000
vt 0.7882 0.9862 0.0000
vt 0.7879 0.8980 0.0000
vt 0.7956 0.8980 0.0000
vt 0.8978 0.8764 0.0000
vt 0.9047 0.8395 0.0000
vt 0.9258 0.8395 0.0000
vt 0.9326 0.8764 0.0000
vt 0.9903 0.8764 0.0000
vt 0.9500 0.8764 0.0000
vt 0.9500 0.8395 0.0000
vt 0.9903 0.8395 0.0000
vt 0.7880 0.8764 0.0000
vt 0.7948 0.8395 0.0000
vt 0.8159 0.8395 0.0000
vt 0.8227 0.8764 0.0000
vt 0.8804 0.8764 0.0000
vt 0.8401 0.8764 0.0000
vt 0.8401 0.8395 0.0000
vt 0.8804 0.8395 0.0000
vt 0.7647 0.9628 0.0000
vt 0.7645 0.9215 0.0000
vt 0.9708 0.9213 0.0000
vt 0.9708 0.9625 0.0000
vt 0.6274 0.8384 0.0000
vt 0.6367 0.8479 0.0000
vt 0.5889 0.8479 0.0000
vt 0.5933 0.8384 0.0000
vt 0.6445 0.8384 0.0000
vt 0.6445 0.7989 0.0000
vt 0.6607 0.7907 0.0000
vt 0.6607 0.8479 0.0000
vt 0.5933 0.7989 0.0000
vt 0.5889 0.7907 0.0000
vt 0.6367 0.7907 0.0000
vt 0.6274 0.7989 0.0000
vt 0.5763 0.7989 0.0000
vt 0.5763 0.8384 0.0000
vt 0.5650 0.8479 0.0000
vt 0.5650 0.7907 0.0000
vt 0.5639 0.8932 0.0000
vt 0.5319 0.8766 0.0000
vt 0.6094 0.8931 0.0000
vt 0.7372 0.9117 0.0000
vt 0.7372 0.9330 0.0000
vt 0.7233 0.9332 0.0000
vt 0.7233 0.9114 0.0000
vt 0.5321 0.9678 0.0000
vt 0.5639 0.9515 0.0000
vt 0.6094 0.9515 0.0000
vt 0.5653 0.9953 0.0000
vt 0.4779 0.8932 0.0000
vt 0.4779 0.9515 0.0000
vt 0.4440 0.9515 0.0000
vt 0.4440 0.8932 0.0000
vt 0.5069 0.8932 0.0000
vt 0.5062 0.8897 0.0000
vt 0.6436 0.8931 0.0000
vt 0.5063 0.9548 0.0000
vt 0.5069 0.9515 0.0000
vt 0.6436 0.9515 0.0000
vt 0.6370 0.9953 0.0000
vt 0.5892 0.9953 0.0000
vt 0.5037 0.8932 0.0000
vt 0.5037 0.9515 0.0000
vt 0.6652 0.7907 0.0000
vt 0.6652 0.8479 0.0000
vt 0.6607 0.9953 0.0000
vt 0.6607 0.9515 0.0000
vt 0.6652 0.9515 0.0000
vt 0.6652 0.9953 0.0000
vt 0.6607 0.8931 0.0000
vt 0.6652 0.8931 0.0000
vt 0.6897 0.8010 0.0000
vt 0.6897 0.8392 0.0000
vt 0.6952 0.9528 0.0000
vt 0.6904 0.9815 0.0000
vt 0.6943 0.9033 0.0000
vt 0.6943 0.9413 0.0000
vt 0.6907 0.8626 0.0000
vt 0.6955 0.8916 0.0000
vt 0.7141 0.8089 0.0000
vt 0.7141 0.8313 0.0000
vt 0.7251 0.9530 0.0000
vt 0.7155 0.9644 0.0000
vt 0.7161 0.8798 0.0000
vt 0.7258 0.8914 0.0000
vt 0.9480 0.9936 0.0000
vt 0.9768 0.9833 0.0000
vt 0.9775 0.9909 0.0000
vt 0.7875 0.9938 0.0000
vt 0.7581 0.9912 0.0000
vt 0.7587 0.9836 0.0000
vt 0.7872 0.8904 0.0000
vt 0.7585 0.9007 0.0000
vt 0.7578 0.8932 0.0000
vt 0.9480 0.8902 0.0000
vt 0.9775 0.8928 0.0000
vt 0.9768 0.9004 0.0000
vt 0.7706 0.8764 0.0000
vt 0.7706 0.8395 0.0000
vt 0.8984 0.9213 0.0000
vt 0.9102 0.8978 0.0000
vt 0.9102 0.9860 0.0000
vt 0.8984 0.9625 0.0000
vt 0.8370 0.9626 0.0000
vt 0.8254 0.9861 0.0000
vt 0.8251 0.8979 0.0000
vt 0.8368 0.9213 0.0000
vt 0.7399 0.9629 0.0000
vt 0.9956 0.9625 0.0000
vt 0.9956 0.9213 0.0000
vt 0.7398 0.9216 0.0000
vt 0.8908 0.9833 0.0000
vt 0.8785 0.9625 0.0000
vt 0.8984 0.9860 0.0000
vt 0.8908 0.9004 0.0000
vt 0.8984 0.8978 0.0000
vt 0.8785 0.9213 0.0000
vt 0.8570 0.9625 0.0000
vt 0.8570 0.9213 0.0000
vt 0.8447 0.9834 0.0000
vt 0.8371 0.9861 0.0000
vt 0.8398 0.8971 0.0000
vt 0.8324 0.8962 0.0000
# 129 texture coords

o Anvil
g Anvil
usemtl wire_154185229
s 1
f 1/1/1 2/2/1 3/3/1 4/4/1 
f 5/5/2 6/6/2 7/7/2 8/8/2 
f 9/9/3 10/10/3 11/11/3 12/12/3 
s 2
f 13/13/1 14/14/1 15/15/1 16/16/1 
s 1
f 17/17/4 18/18/4 19/19/4 20/20/4 
s 2
f 21/21/2 22/22/2 23/23/2 24/24/2 
s 4
f 24/25/5 23/26/6 7/7/7 6/6/8 
f 16/27/9 15/28/10 3/3/11 2/2/12 
f 12/29/13 25/30/13 26/31/13 9/32/13 
s 16
f 14/33/14 13/34/15 27/35/16 28/36/17 
s 4
f 20/37/18 29/38/18 30/39/18 17/40/18 
s 8
f 22/41/19 21/42/20 31/43/21 32/44/22 
s 1
f 33/45/3 34/46/3 31/43/3 35/47/3 
f 36/48/23 37/49/23 38/50/23 39/51/23 
f 40/52/4 41/53/4 42/54/4 32/55/4 
s 4
f 34/56/24 40/57/24 32/58/25 31/59/25 
s 2
f 41/53/26 33/45/26 35/47/26 42/54/26 
s 1
f 43/60/3 44/61/3 34/46/3 33/45/3 
f 26/31/3 25/30/3 45/62/3 35/47/3 
f 46/63/4 47/64/4 41/53/4 40/52/4 
f 42/54/4 48/65/4 30/66/4 29/67/4 
s 4
f 44/68/27 46/69/27 40/57/28 34/56/28 
s 2
f 47/64/26 43/60/26 33/45/26 41/53/26 
f 35/47/26 45/62/26 48/65/26 42/54/26 
s 8
f 44/68/29 43/60/29 47/64/29 46/69/29 
f 28/36/1 27/35/1 49/70/1 50/71/1 
f 27/72/1 51/73/1 52/74/1 49/75/1 
f 51/73/1 53/76/1 54/77/1 52/74/1 
f 53/76/1 28/36/1 50/71/1 54/77/1 
s 1
f 55/78/30 56/79/30 50/71/31 49/70/31 
s 2
f 57/80/32 55/81/33 49/75/34 52/74/34 
s 4
f 58/82/35 57/83/35 52/74/35 54/77/35 
s 2
f 56/84/36 58/85/37 54/77/38 50/71/38 
s 1
f 37/86/39 36/87/39 56/79/30 55/78/30 
s 2
f 38/88/40 37/89/40 55/81/33 57/80/32 
s 4
f 39/51/35 38/50/35 57/83/35 58/82/35 
s 2
f 36/90/41 39/91/41 58/85/37 56/84/36 
f 4/92/42 3/3/42 59/93/42 60/94/42 
f 6/6/43 5/95/43 61/96/43 62/97/43 
f 8/98/44 7/7/44 63/99/44 64/100/44 
f 2/2/45 1/101/45 65/102/45 66/103/45 
s 1
f 21/21/3 24/24/3 10/10/3 9/9/3 
f 15/15/3 14/14/3 12/12/3 11/11/3 
f 13/104/4 16/105/4 18/18/4 17/17/4 
f 23/23/4 22/22/4 20/20/4 19/19/4 
s 4
f 67/106/46 65/107/46 60/108/46 68/109/46 
f 69/110/46 61/111/46 64/112/46 70/113/46 
f 24/25/5 6/6/8 62/97/47 10/114/47 
f 59/93/48 3/3/11 15/28/10 11/115/48 
f 16/27/9 2/2/12 66/103/49 18/116/49 
f 63/99/50 7/7/7 23/26/6 19/117/50 
f 14/33/14 28/36/17 25/30/13 12/29/13 
f 26/31/13 31/43/21 21/42/20 9/32/13 
f 22/41/19 32/44/22 29/38/18 20/37/18 
f 30/39/18 27/35/16 13/34/15 17/40/18 
s 1
f 28/36/3 53/76/3 45/62/3 25/30/3 
f 35/47/3 31/43/3 26/31/3 
f 48/65/4 51/73/4 27/72/4 30/66/4 
f 29/67/4 32/55/4 42/54/4 
s 2
f 53/76/26 51/73/26 48/65/26 45/62/26 
s 8
f 59/118/51 11/119/51 68/109/51 60/120/51 
f 66/121/52 65/122/52 67/106/52 18/123/52 
s 2
f 18/123/46 11/119/46 10/124/46 19/125/46 
s 8
f 62/126/53 61/127/53 69/110/53 10/124/53 
f 63/128/54 19/125/54 70/113/54 64/129/54 
f 19/125/55 10/124/55 69/110/55 70/113/55 
f 11/119/56 18/123/56 67/106/56 68/109/56 
s 4
f 1/1/46 4/4/46 60/108/46 65/107/46 
f 5/5/46 8/8/46 64/112/46 61/111/46 
# 67 polygons - 2 triangles

