# 3ds Max Wavefront OBJ Exporter v0.99 - (c)2007 guruware
# File Created: 12.02.2023 11:00:38

mtllib Whetstone.mtl

#
# object Whetstone
#

v  0.2255 0.5302 0.0871
v  -0.2255 0.5302 0.0871
v  -0.2787 0.3664 0.0871
v  0.2787 0.3664 0.0871
v  0.2255 0.2026 0.0871
v  0.2255 0.2026 -0.0871
v  0.2787 0.3664 -0.0871
v  0.0861 0.1014 0.0871
v  0.0861 0.1014 -0.0871
v  -0.0861 0.1014 0.0871
v  -0.0861 0.1014 -0.0871
v  -0.2255 0.2026 0.0871
v  -0.2255 0.2026 -0.0871
v  -0.2787 0.3664 -0.0871
v  -0.2255 0.5302 -0.0871
v  -0.0861 0.6315 0.0871
v  -0.0861 0.6315 -0.0871
v  0.0861 0.6315 0.0871
v  0.0861 0.6315 -0.0871
v  0.2255 0.5302 -0.0871
v  0.0105 0.3845 0.2527
v  -0.0105 0.3845 0.2527
v  -0.0209 0.3664 0.2527
v  0.0209 0.3664 0.2527
v  0.0185 0.3344 0.1000
v  0.0185 0.3344 -0.1000
v  0.0370 0.3664 -0.1000
v  0.0370 0.3664 0.1000
v  -0.0185 0.3344 0.1000
v  -0.0185 0.3344 -0.1000
v  -0.0370 0.3664 0.1000
v  -0.0370 0.3664 -0.1000
v  -0.0185 0.3985 0.1000
v  -0.0185 0.3985 -0.1000
v  0.0185 0.3985 0.1000
v  0.0185 0.3985 -0.1000
v  0.0105 0.3845 -0.2527
v  0.0209 0.3664 -0.2527
v  -0.0209 0.3664 -0.2527
v  -0.0105 0.3845 -0.2527
v  -0.0105 0.3483 0.2527
v  0.0105 0.3483 0.2527
v  0.0105 0.3483 -0.2527
v  -0.0105 0.3483 -0.2527
v  0.0105 0.3483 -0.1000
v  0.0209 0.3664 -0.1000
v  0.0209 0.3664 0.1000
v  0.0105 0.3483 0.1000
v  -0.0105 0.3483 -0.1000
v  -0.0105 0.3483 0.1000
v  -0.0209 0.3664 -0.1000
v  -0.0209 0.3664 0.1000
v  -0.0105 0.3845 -0.1000
v  -0.0105 0.3845 0.1000
v  0.0105 0.3845 -0.1000
v  0.0105 0.3845 0.1000
v  0.3483 0.2090 0.0871
v  0.3483 0.3483 0.0871
v  0.2961 0.3483 0.0871
v  0.2961 0.2090 0.0871
v  0.3483 0.2090 -0.1697
v  0.2961 0.2090 -0.1697
v  0.2961 0.3483 -0.1697
v  0.3483 0.3483 -0.1697
v  0.3483 -0.0000 -0.1678
v  0.2961 -0.0000 -0.1678
v  0.2961 -0.0000 -0.2375
v  0.3483 -0.0000 -0.2375
v  -0.4180 0.2090 -0.1000
v  -0.4180 0.3483 -0.1000
v  -0.4180 0.3483 -0.1697
v  -0.4180 0.2090 -0.1697
v  -0.3483 0.3483 -0.1000
v  -0.2903 0.3483 -0.1000
v  -0.2903 0.3483 -0.1697
v  -0.3483 0.3483 -0.1697
v  0.4180 0.3483 -0.1000
v  0.4180 0.2090 -0.1000
v  0.4180 0.2090 -0.1697
v  0.4180 0.3483 -0.1697
v  0.2961 0.3483 -0.1000
v  -0.2903 0.2090 -0.1000
v  0.2961 0.2090 -0.1000
v  -0.2903 0.2090 -0.1697
v  0.3483 0.3483 -0.1000
v  0.3483 0.2090 -0.1000
v  -0.3483 0.2090 -0.1000
v  -0.3483 0.2090 -0.1697
v  -0.2903 -0.0000 -0.1678
v  -0.3483 -0.0000 -0.1678
v  -0.3483 -0.0000 -0.2375
v  -0.2903 -0.0000 -0.2375
v  -0.2961 0.3483 -0.1000
v  -0.2961 0.2090 -0.1000
v  -0.3483 0.2090 0.1568
v  -0.2961 0.2090 0.1568
v  -0.2961 0.3483 0.1568
v  -0.3483 0.3483 0.1568
v  -0.3483 0.0000 0.1549
v  -0.2961 0.0000 0.1549
v  -0.2961 0.0000 0.2245
v  -0.3483 0.0000 0.2245
v  0.4180 0.2090 0.0871
v  0.4180 0.3483 0.0871
v  0.4180 0.3483 0.1568
v  0.4180 0.2090 0.1568
v  0.2903 0.3483 0.0871
v  0.2903 0.3483 0.1568
v  0.3483 0.3483 0.1568
v  -0.4180 0.3483 0.0871
v  -0.4180 0.2090 0.0871
v  -0.4180 0.2090 0.1568
v  -0.4180 0.3483 0.1568
v  -0.2961 0.3483 0.0871
v  0.2903 0.2090 0.0871
v  -0.2961 0.2090 0.0871
v  0.2903 0.2090 0.1568
v  -0.3483 0.3483 0.0871
v  -0.3483 0.2090 0.0871
v  0.3483 0.2090 0.1568
v  0.2903 0.0000 0.1549
v  0.3483 0.0000 0.1549
v  0.3483 0.0000 0.2245
v  0.2903 0.0000 0.2245
# 124 vertices

vn 0.6191 0.4498 0.6437
vn -0.6192 0.4498 0.6437
vn -0.7652 -0.0000 0.6438
vn 0.7653 0.0000 0.6437
vn 0.6191 -0.4498 0.6437
vn 0.6191 -0.4498 -0.6437
vn 0.7653 -0.0000 -0.6437
vn 0.2365 -0.7278 0.6437
vn 0.2365 -0.7278 -0.6437
vn -0.2365 -0.7278 0.6437
vn -0.2365 -0.7278 -0.6437
vn -0.6191 -0.4498 0.6437
vn -0.6191 -0.4498 -0.6437
vn -0.7653 0.0000 -0.6437
vn -0.6191 0.4498 -0.6438
vn -0.2365 0.7278 0.6437
vn -0.2365 0.7278 -0.6437
vn 0.2365 0.7278 0.6437
vn 0.2365 0.7278 -0.6437
vn 0.6191 0.4498 -0.6437
vn 0.3962 0.6862 0.6100
vn -0.3962 0.6862 0.6100
vn -0.7924 -0.0000 0.6100
vn 0.7924 -0.0000 0.6100
vn 0.3962 -0.6862 0.6100
vn 0.3962 -0.6862 -0.6100
vn 0.7924 0.0000 -0.6100
vn -0.3962 -0.6862 0.6100
vn -0.3962 -0.6862 -0.6100
vn -0.7924 0.0000 0.6100
vn -0.7924 0.0000 -0.6100
vn -0.3962 0.6862 -0.6100
vn 0.3961 0.6862 0.6100
vn 0.3962 0.6862 -0.6100
vn 0.2724 -0.4717 -0.8386
vn 0.5447 0.0000 -0.8386
vn 0.5447 0.0000 0.8386
vn 0.2724 -0.4717 0.8386
vn -0.2724 -0.4717 -0.8386
vn -0.2724 -0.4717 0.8386
vn -0.5447 0.0000 -0.8386
vn -0.5447 0.0000 0.8386
vn -0.2724 0.4717 -0.8386
vn -0.2724 0.4717 0.8386
vn 0.2724 0.4717 -0.8386
vn 0.2724 0.4717 0.8386
vn 0.5774 -0.5774 0.5774
vn 0.5774 0.5774 0.5774
vn -0.5774 0.5774 0.5774
vn -0.5774 -0.5774 0.5774
vn 0.3680 -0.2121 -0.9053
vn -0.3680 -0.2121 -0.9053
vn 0.0000 0.7071 -0.7071
vn 0.5957 -0.6497 0.4723
vn -0.5957 -0.6497 0.4722
vn -0.5626 -0.4861 -0.6687
vn 0.5626 -0.4861 -0.6687
vn -0.5774 0.5774 -0.5774
vn -0.5774 -0.5774 -0.5774
vn -0.0000 0.7071 0.7071
vn 0.5774 -0.5774 -0.5774
vn 0.5774 0.5774 -0.5774
vn -0.3015 0.9045 0.3015
vn 0.2406 -0.3934 0.8873
vn -0.5117 -0.6562 0.5546
vn 0.3015 0.9045 0.3015
vn 0.5117 -0.6562 0.5546
vn -0.2406 -0.3934 0.8873
vn -0.5957 -0.6497 0.4723
vn 0.5627 -0.4862 -0.6686
vn -0.3680 -0.2121 0.9053
vn 0.3680 -0.2121 0.9053
vn -0.5957 -0.6497 -0.4723
vn 0.5957 -0.6497 -0.4722
vn 0.5626 -0.4861 0.6687
vn -0.5626 -0.4861 0.6687
vn 0.3015 0.9045 -0.3015
vn -0.2406 -0.3934 -0.8873
vn 0.5117 -0.6562 -0.5546
vn -0.3015 0.9045 -0.3015
vn -0.5117 -0.6562 -0.5546
vn 0.2406 -0.3934 -0.8873
vn 0.5957 -0.6497 -0.4723
# 83 vertex normals

vt 0.9740 0.5180 0.0000
vt 0.8212 0.5180 0.0000
vt 0.8031 0.4625 0.0000
vt 0.9921 0.4625 0.0000
vt 0.9885 0.6168 0.0000
vt 0.9301 0.6168 0.0000
vt 0.9301 0.5578 0.0000
vt 0.9885 0.5578 0.0000
vt 0.8717 0.6168 0.0000
vt 0.8717 0.5578 0.0000
vt 0.8134 0.6168 0.0000
vt 0.8134 0.5578 0.0000
vt 0.7550 0.6168 0.0000
vt 0.7550 0.5578 0.0000
vt 0.6966 0.6168 0.0000
vt 0.6966 0.5578 0.0000
vt 0.9884 0.6168 0.0000
vt 0.9884 0.5578 0.0000
vt 0.8133 0.6168 0.0000
vt 0.8133 0.5578 0.0000
vt 0.7549 0.6168 0.0000
vt 0.7549 0.5578 0.0000
vt 0.9268 0.5523 0.0000
vt 0.8684 0.5523 0.0000
vt 0.8212 0.4070 0.0000
vt 0.9740 0.4070 0.0000
vt 0.8684 0.3727 0.0000
vt 0.9268 0.3727 0.0000
vt 0.8148 0.1283 0.0000
vt 0.7989 0.1283 0.0000
vt 0.7909 0.1145 0.0000
vt 0.8228 0.1145 0.0000
vt 0.8166 0.3015 0.0000
vt 0.8166 0.3726 0.0000
vt 0.8053 0.3726 0.0000
vt 0.8053 0.3015 0.0000
vt 0.8298 0.3015 0.0000
vt 0.8298 0.3726 0.0000
vt 0.8412 0.3015 0.0000
vt 0.8412 0.3726 0.0000
vt 0.8525 0.3015 0.0000
vt 0.8525 0.3726 0.0000
vt 0.7939 0.3015 0.0000
vt 0.7939 0.3726 0.0000
vt 0.7808 0.3726 0.0000
vt 0.7808 0.3015 0.0000
vt 0.7989 0.1007 0.0000
vt 0.8148 0.1007 0.0000
vt 0.9534 0.0351 0.0000
vt 0.8699 0.0351 0.0000
vt 0.8699 0.0252 0.0000
vt 0.9534 0.0252 0.0000
vt 0.8699 0.0564 0.0000
vt 0.9534 0.0564 0.0000
vt 0.9534 0.0663 0.0000
vt 0.8699 0.0663 0.0000
vt 0.9534 0.0465 0.0000
vt 0.8699 0.0465 0.0000
vt 0.8699 0.0038 0.0000
vt 0.9534 0.0038 0.0000
vt 0.9534 0.0153 0.0000
vt 0.8699 0.0153 0.0000
vt 0.7787 0.1145 0.0000
vt 0.7928 0.0901 0.0000
vt 0.7928 0.1389 0.0000
vt 0.8210 0.1389 0.0000
vt 0.8350 0.1145 0.0000
vt 0.8210 0.0901 0.0000
vt 0.8149 0.1007 0.0000
vt 0.8351 0.1145 0.0000
vt 0.7910 0.1145 0.0000
vt 0.6848 0.3579 0.0000
vt 0.6848 0.3093 0.0000
vt 0.7025 0.3095 0.0000
vt 0.7025 0.3578 0.0000
vt 0.6848 0.1750 0.0000
vt 0.7025 0.1750 0.0000
vt 0.7025 0.2222 0.0000
vt 0.6848 0.2222 0.0000
vt 0.6848 0.0804 0.0000
vt 0.7025 0.0804 0.0000
vt 0.7025 0.1040 0.0000
vt 0.6848 0.1040 0.0000
vt 0.9685 0.1750 0.0000
vt 0.9685 0.2222 0.0000
vt 0.9448 0.2222 0.0000
vt 0.9448 0.1750 0.0000
vt 0.9212 0.2459 0.0000
vt 0.9015 0.2459 0.0000
vt 0.9015 0.2222 0.0000
vt 0.9212 0.2222 0.0000
vt 0.6375 0.2222 0.0000
vt 0.6375 0.1750 0.0000
vt 0.6612 0.1750 0.0000
vt 0.6612 0.2222 0.0000
vt 0.7025 0.2459 0.0000
vt 0.9015 0.2931 0.0000
vt 0.7025 0.2931 0.0000
vt 0.9015 0.1750 0.0000
vt 0.7025 0.1513 0.0000
vt 0.9015 0.1513 0.0000
vt 0.6848 0.2459 0.0000
vt 0.6375 0.2459 0.0000
vt 0.6375 0.3093 0.0000
vt 0.7669 0.3097 0.0000
vt 0.7669 0.3576 0.0000
vt 0.7025 0.4214 0.0000
vt 0.6848 0.4214 0.0000
vt 0.6139 0.2222 0.0000
vt 0.6139 0.1750 0.0000
vt 0.6139 0.1504 0.0000
vt 0.6375 0.1504 0.0000
vt 0.6612 0.2459 0.0000
vt 0.9212 0.2931 0.0000
vt 0.9212 0.1750 0.0000
vt 0.9015 0.0804 0.0000
vt 0.9212 0.0804 0.0000
vt 0.9212 0.1040 0.0000
vt 0.9015 0.1040 0.0000
vt 0.6139 0.0810 0.0000
vt 0.6139 0.0574 0.0000
vt 0.6848 0.0095 0.0000
vt 0.7025 0.0095 0.0000
vt 0.7734 0.0574 0.0000
vt 0.7734 0.0810 0.0000
vt 0.9212 0.3641 0.0000
vt 0.9015 0.3641 0.0000
vt 0.9921 0.0574 0.0000
vt 0.9921 0.0810 0.0000
vt 0.8306 0.0810 0.0000
vt 0.8306 0.0574 0.0000
vt 0.9448 0.2459 0.0000
vt 0.9448 0.2931 0.0000
vt 0.9448 0.1513 0.0000
vt 0.9685 0.1513 0.0000
vt 0.6848 0.3576 0.0000
vt 0.6848 0.3095 0.0000
vt 0.7025 0.3096 0.0000
vt 0.7025 0.3575 0.0000
vt 0.7025 0.2223 0.0000
vt 0.6848 0.2223 0.0000
vt 0.7025 0.1041 0.0000
vt 0.6848 0.1041 0.0000
vt 0.9686 0.1750 0.0000
vt 0.9686 0.2223 0.0000
vt 0.9450 0.2223 0.0000
vt 0.9450 0.1750 0.0000
vt 0.9213 0.2460 0.0000
vt 0.9016 0.2460 0.0000
vt 0.9016 0.2223 0.0000
vt 0.9213 0.2223 0.0000
vt 0.6375 0.2223 0.0000
vt 0.6612 0.2223 0.0000
vt 0.7025 0.2460 0.0000
vt 0.9016 0.2933 0.0000
vt 0.7025 0.2933 0.0000
vt 0.9016 0.1750 0.0000
vt 0.7025 0.1514 0.0000
vt 0.9016 0.1514 0.0000
vt 0.6848 0.2460 0.0000
vt 0.6375 0.2460 0.0000
vt 0.6375 0.3095 0.0000
vt 0.7666 0.3097 0.0000
vt 0.7666 0.3574 0.0000
vt 0.7025 0.4211 0.0000
vt 0.6848 0.4211 0.0000
vt 0.6138 0.2223 0.0000
vt 0.6138 0.1750 0.0000
vt 0.6138 0.1514 0.0000
vt 0.6375 0.1514 0.0000
vt 0.6612 0.2460 0.0000
vt 0.9213 0.2933 0.0000
vt 0.9213 0.1750 0.0000
vt 0.9016 0.0804 0.0000
vt 0.9213 0.0804 0.0000
vt 0.9213 0.1041 0.0000
vt 0.9016 0.1041 0.0000
vt 0.6138 0.0811 0.0000
vt 0.6138 0.0574 0.0000
vt 0.7735 0.0574 0.0000
vt 0.7735 0.0811 0.0000
vt 0.9213 0.3643 0.0000
vt 0.9016 0.3643 0.0000
vt 0.9923 0.0574 0.0000
vt 0.9923 0.0811 0.0000
vt 0.8307 0.0811 0.0000
vt 0.8307 0.0574 0.0000
vt 0.9450 0.2460 0.0000
vt 0.9450 0.2933 0.0000
vt 0.9450 0.1514 0.0000
vt 0.9686 0.1514 0.0000
# 191 texture coords

o Whetstone
g Whetstone
usemtl barrel_default
s 1
f 1/1/1 2/2/2 3/3/3 4/4/4 
s 2
f 4/5/4 5/6/5 6/7/6 7/8/7 
f 5/6/5 8/9/8 9/10/9 6/7/6 
f 8/9/8 10/11/10 11/12/11 9/10/9 
f 10/11/10 12/13/12 13/14/13 11/12/11 
f 12/13/12 3/15/3 14/16/14 13/14/13 
f 3/17/3 2/6/2 15/7/15 14/18/14 
f 2/6/2 16/9/16 17/10/17 15/7/15 
f 16/9/16 18/19/18 19/20/19 17/10/17 
f 18/19/18 1/21/1 20/22/20 19/20/19 
f 1/21/1 4/15/4 7/16/7 20/22/20 
s 1
f 20/2/20 15/1/15 17/23/17 19/24/19 
f 3/3/3 12/25/12 5/26/5 4/4/4 
f 7/3/7 6/25/6 13/26/13 14/4/14 
f 1/1/1 18/23/18 16/24/16 2/2/2 
f 20/2/20 7/3/7 14/4/14 15/1/15 
f 12/25/12 10/27/10 8/28/8 5/26/5 
f 6/25/6 9/27/9 11/28/11 13/26/13 
f 21/29/21 22/30/22 23/31/23 24/32/24 
f 25/33/25 26/34/26 27/35/27 28/36/24 
s 2
f 29/37/28 30/38/29 26/34/26 25/33/25 
s 1
f 31/39/30 32/40/31 30/38/29 29/37/28 
s 2
f 33/41/22 34/42/32 32/40/31 31/39/30 
s 1
f 35/43/33 36/44/34 34/45/32 33/46/22 
s 2
f 28/36/24 27/35/27 36/44/34 35/43/33 
s 1
f 37/30/34 38/31/27 39/32/31 40/29/32 
f 23/31/23 41/47/28 42/48/25 24/32/24 
f 38/31/27 43/47/26 44/48/29 39/32/31 
s 2
f 45/49/35 43/50/26 38/51/27 46/52/36 
f 47/53/37 24/54/24 42/55/25 48/56/38 
s 4
f 49/57/39 44/58/29 43/50/26 45/49/35 
f 48/59/38 42/60/25 41/61/28 50/62/40 
s 2
f 51/54/41 39/53/31 44/58/29 49/57/39 
f 50/62/40 41/61/28 23/52/23 52/51/42 
s 4
f 53/55/43 40/56/32 39/53/31 51/54/41 
f 52/51/42 23/52/23 22/49/22 54/50/44 
s 2
f 55/61/45 37/62/34 40/59/32 53/60/43 
f 54/50/44 22/49/22 21/57/21 56/58/46 
s 4
f 46/52/36 38/51/27 37/62/34 55/61/45 
f 56/58/46 21/57/21 24/54/24 47/53/37 
s 8
f 45/47/35 46/31/36 27/63/27 26/64/26 
f 46/31/36 55/30/45 36/65/34 27/63/27 
f 55/30/45 53/29/43 34/66/32 36/65/34 
f 53/29/43 51/32/41 32/67/31 34/66/32 
f 51/32/41 49/48/39 30/68/29 32/67/31 
f 49/48/39 45/47/35 26/64/26 30/68/29 
f 47/32/37 48/69/38 25/68/25 28/70/24 
f 48/69/38 50/47/40 29/64/28 25/68/25 
f 50/47/40 52/71/42 31/63/30 29/64/28 
f 52/71/42 54/30/44 33/65/22 31/63/30 
f 54/30/44 56/29/46 35/66/33 33/65/22 
f 56/29/46 47/32/37 28/70/24 35/66/33 
s 1
f 57/72/47 58/73/48 59/74/49 60/75/50 
f 61/76/51 62/77/52 63/78/53 64/79/53 
s 2
f 65/80/54 66/81/55 67/82/56 68/83/57 
f 69/84/50 70/85/49 71/86/58 72/87/59 
s 4
f 73/88/60 74/89/60 75/90/53 76/91/53 
s 2
f 77/92/48 78/93/47 79/94/61 80/95/62 
s 1
f 81/96/63 74/89/60 82/97/64 83/98/65 
f 62/77/52 84/99/51 75/90/53 63/78/53 
s 2
f 83/100/65 82/101/64 84/99/51 62/77/52 
s 4
f 81/96/63 85/102/66 64/79/53 63/78/53 
s 2
f 86/103/67 85/102/66 58/73/48 57/104/47 
s 4
f 85/102/66 81/96/63 59/74/49 58/73/48 
s 8
f 81/105/63 83/106/65 60/75/50 59/74/49 
s 4
f 83/107/65 86/108/67 57/72/47 60/75/50 
s 1
f 85/109/66 86/110/67 78/93/47 77/92/48 
s 8
f 86/110/67 61/111/51 79/112/61 78/93/47 
s 1
f 61/76/51 64/79/53 80/95/62 79/94/61 
s 4
f 64/79/53 85/102/66 77/113/48 80/95/62 
f 74/89/60 81/96/63 63/78/53 75/90/53 
s 1
f 74/89/60 73/88/60 87/114/68 82/97/64 
f 84/99/51 88/115/52 76/91/53 75/90/53 
s 2
f 89/116/54 90/117/69 91/118/56 92/119/70 
s 1
f 62/77/52 61/76/51 68/83/57 67/82/56 
s 16
f 61/120/51 86/121/67 65/80/54 68/83/57 
s 32
f 86/122/67 83/123/65 66/81/55 65/80/54 
s 16
f 83/124/65 62/125/52 67/82/56 66/81/55 
s 1
f 82/97/64 87/114/68 90/126/69 89/127/54 
s 4
f 87/128/68 88/129/52 91/118/56 90/117/69 
s 1
f 88/115/52 84/99/51 92/119/70 91/118/56 
s 4
f 84/130/51 82/131/64 89/116/54 92/119/70 
s 1
f 87/114/68 73/88/60 70/132/49 69/133/50 
s 4
f 73/88/60 76/91/53 71/86/58 70/132/49 
s 1
f 76/91/53 88/115/52 72/87/59 71/86/58 
s 8
f 88/134/52 87/135/68 69/84/50 72/87/59 
s 1
f 87/136/59 73/137/58 93/138/62 94/139/61 
f 95/76/71 96/77/72 97/140/60 98/141/60 
s 2
f 99/80/73 100/81/74 101/142/75 102/143/76 
f 103/144/61 104/145/62 105/146/48 106/147/47 
s 4
f 58/148/53 107/149/53 108/150/60 109/151/60 
s 2
f 110/152/58 111/93/59 112/94/50 113/153/49 
s 1
f 114/154/77 107/149/53 115/155/78 116/156/79 
f 96/77/72 117/157/71 108/150/60 97/140/60 
s 2
f 116/158/79 115/159/78 117/157/71 96/77/72 
s 4
f 114/154/77 118/160/80 98/141/60 97/140/60 
s 2
f 119/161/81 118/160/80 73/137/58 87/162/59 
s 4
f 118/160/80 114/154/77 93/138/62 73/137/58 
s 8
f 114/163/77 116/164/79 94/139/61 93/138/62 
s 4
f 116/165/79 119/166/81 87/136/59 94/139/61 
s 1
f 118/167/80 119/168/81 111/93/59 110/152/58 
s 8
f 119/168/81 95/169/71 112/170/50 111/93/59 
s 1
f 95/76/71 98/141/60 113/153/49 112/94/50 
s 4
f 98/141/60 118/160/80 110/171/58 113/153/49 
f 107/149/53 114/154/77 97/140/60 108/150/60 
s 1
f 107/149/53 58/148/53 57/172/82 115/155/78 
f 117/157/71 120/173/72 109/151/60 108/150/60 
s 2
f 121/174/73 122/175/83 123/176/75 124/177/76 
s 1
f 96/77/72 95/76/71 102/143/76 101/142/75 
s 16
f 95/178/71 119/179/81 99/80/73 102/143/76 
s 32
f 119/122/81 116/123/79 100/81/74 99/80/73 
s 16
f 116/180/79 96/181/72 101/142/75 100/81/74 
s 1
f 115/155/78 57/172/82 122/182/83 121/183/73 
s 4
f 57/184/82 120/185/72 123/176/75 122/175/83 
s 1
f 120/173/72 117/157/71 124/177/76 123/176/75 
s 4
f 117/186/71 115/187/78 121/174/73 124/177/76 
s 1
f 57/172/82 58/148/53 104/188/62 103/189/61 
s 4
f 58/148/53 109/151/60 105/146/48 104/188/62 
s 1
f 109/151/60 120/173/72 106/147/47 105/146/48 
s 8
f 120/190/72 57/191/82 103/144/61 106/147/47 
# 120 polygons

