# 3ds Max Wavefront OBJ Exporter v0.99 - (c)2007 guruware
# File Created: 12.02.2023 15:48:50

mtllib Whetstone_Wheel.mtl

#
# object Whetstone_wheel
#

v  0.2255 0.1742 -0.1638
v  -0.2255 0.1742 -0.1638
v  -0.2787 0.1742 -0.0000
v  0.2787 0.1742 -0.0000
v  0.2255 0.1742 0.1638
v  0.2255 0.0000 0.1638
v  0.2787 0.0000 -0.0000
v  0.0861 0.1742 0.2650
v  0.0861 0.0000 0.2650
v  -0.0861 0.1742 0.2650
v  -0.0861 0.0000 0.2650
v  -0.2255 0.1742 0.1638
v  -0.2255 0.0000 0.1638
v  -0.2787 0.0000 -0.0000
v  -0.2255 0.0000 -0.1638
v  -0.0861 0.1742 -0.2650
v  -0.0861 0.0000 -0.2650
v  0.0861 0.1742 -0.2650
v  0.0861 0.0000 -0.2650
v  0.2255 0.0000 -0.1638
# 20 vertices

vn 0.6191 0.6437 -0.4498
vn -0.6192 0.6437 -0.4498
vn -0.7652 0.6438 0.0000
vn 0.7653 0.6437 -0.0000
vn 0.6191 0.6437 0.4498
vn 0.6191 -0.6437 0.4498
vn 0.7653 -0.6437 0.0000
vn 0.2365 0.6437 0.7278
vn 0.2365 -0.6437 0.7278
vn -0.2365 0.6437 0.7278
vn -0.2365 -0.6437 0.7278
vn -0.6191 0.6437 0.4498
vn -0.6191 -0.6437 0.4498
vn -0.7653 -0.6437 -0.0000
vn -0.6191 -0.6438 -0.4498
vn -0.2365 0.6437 -0.7278
vn -0.2365 -0.6437 -0.7278
vn 0.2365 0.6437 -0.7278
vn 0.2365 -0.6437 -0.7278
vn 0.6191 -0.6437 -0.4498
# 20 vertex normals

vt 0.9740 0.5180 0.0000
vt 0.8212 0.5180 0.0000
vt 0.8031 0.4625 0.0000
vt 0.9921 0.4625 0.0000
vt 0.9885 0.6168 0.0000
vt 0.9301 0.6168 0.0000
vt 0.9301 0.5578 0.0000
vt 0.9885 0.5578 0.0000
vt 0.8717 0.6168 0.0000
vt 0.8717 0.5578 0.0000
vt 0.8134 0.6168 0.0000
vt 0.8134 0.5578 0.0000
vt 0.7550 0.6168 0.0000
vt 0.7550 0.5578 0.0000
vt 0.6966 0.6168 0.0000
vt 0.6966 0.5578 0.0000
vt 0.9884 0.6168 0.0000
vt 0.9884 0.5578 0.0000
vt 0.8133 0.6168 0.0000
vt 0.8133 0.5578 0.0000
vt 0.7549 0.6168 0.0000
vt 0.7549 0.5578 0.0000
vt 0.9268 0.5523 0.0000
vt 0.8684 0.5523 0.0000
vt 0.8212 0.4070 0.0000
vt 0.9740 0.4070 0.0000
vt 0.8684 0.3727 0.0000
vt 0.9268 0.3727 0.0000
# 28 texture coords

o Whetstone_wheel
g Whetstone_wheel
usemtl barrel_default
s 1
f 1/1/1 2/2/2 3/3/3 4/4/4 
s 2
f 4/5/4 5/6/5 6/7/6 7/8/7 
f 5/6/5 8/9/8 9/10/9 6/7/6 
f 8/9/8 10/11/10 11/12/11 9/10/9 
f 10/11/10 12/13/12 13/14/13 11/12/11 
f 12/13/12 3/15/3 14/16/14 13/14/13 
f 3/17/3 2/6/2 15/7/15 14/18/14 
f 2/6/2 16/9/16 17/10/17 15/7/15 
f 16/9/16 18/19/18 19/20/19 17/10/17 
f 18/19/18 1/21/1 20/22/20 19/20/19 
f 1/21/1 4/15/4 7/16/7 20/22/20 
s 1
f 20/2/20 15/1/15 17/23/17 19/24/19 
f 3/3/3 12/25/12 5/26/5 4/4/4 
f 7/3/7 6/25/6 13/26/13 14/4/14 
f 1/1/1 18/23/18 16/24/16 2/2/2 
f 20/2/20 7/3/7 14/4/14 15/1/15 
f 12/25/12 10/27/10 8/28/8 5/26/5 
f 6/25/6 9/27/9 11/28/11 13/26/13 
# 18 polygons

